# xmcd CD database file
#
# Track frame offsets:
#	150
#	15445
#	28265
#	41187
#	54795
#	70955
#	86232
#	101877
#	112092
#	126677
#	141425
#	163690
#	178285
#	193692
#	209160
#	225520
#	240000
#	254982
#	269772
#	283767
#
# Disc length: 4055 seconds
#
# Revision: 1
# Processed by: cddbd v1.5.2PL0 Copyright (c) Steve Scherf et al.
# Submitted via: CDex 1.51
#
DISCID=450fd514
DTITLE=Glenn Miller - The Best Of Glenn Miller
DYEAR=2002
DGENRE=Jazz
TTITLE0=Moonlight Serenade
TTITLE1=Little Brown Jug
TTITLE2=Stairway To The Stars
TTITLE3=Glen Island Special
TTITLE4=In The Mood
TTITLE5=Star Dust
TTITLE6=Tuxedo Junction
TTITLE7=Danny Boy
TTITLE8=My Blue Heaven
TTITLE9=Pennsylvania Six-Five Thousand
TTITLE10=Anvil Chorus - Part1&2
TTITLE11=A String Of Pearls
TTITLE12=Song Of The Volga Boatman
TTITLE13=Chattanooga Choo Choo
TTITLE14=Moonlight Sonata
TTITLE15=Don't Sit Under The Apple Tree
TTITLE16=American Patrol
TTITLE17=(I've Got A Gal In) Kalamazoo
TTITLE18=At Last
TTITLE19=St.Louis Blues March
EXTD=YEAR: 2002
EXTT0=
EXTT1=
EXTT2=
EXTT3=
EXTT4=
EXTT5=
EXTT6=
EXTT7=
EXTT8=
EXTT9=
EXTT10=
EXTT11=
EXTT12=
EXTT13=
EXTT14=
EXTT15=
EXTT16=
EXTT17=
EXTT18=
EXTT19=
PLAYORDER=
